<?xml version="1.0" encoding="UTF-8" standalone="no"?>
<svg
   fill="none"
   height="56"
   viewBox="0 0 50 56"
   width="50"
   version="1.1"
   id="svg8"
   sodipodi:docname="compose_logo.svg"
   inkscape:version="1.4.2 (ebf0e940d0, 2025-05-08)"
   xmlns:inkscape="http://www.inkscape.org/namespaces/inkscape"
   xmlns:sodipodi="http://sodipodi.sourceforge.net/DTD/sodipodi-0.dtd"
   xmlns="http://www.w3.org/2000/svg"
   xmlns:svg="http://www.w3.org/2000/svg">
  <defs
     id="defs8" />
  <sodipodi:namedview
     id="namedview8"
     pagecolor="#ffffff"
     bordercolor="#000000"
     borderopacity="0.25"
     inkscape:showpageshadow="2"
     inkscape:pageopacity="0.0"
     inkscape:pagecheckerboard="0"
     inkscape:deskcolor="#d1d1d1"
     inkscape:zoom="14.4"
     inkscape:cx="25"
     inkscape:cy="28.020833"
     inkscape:window-width="1521"
     inkscape:window-height="1018"
     inkscape:window-x="0"
     inkscape:window-y="0"
     inkscape:window-maximized="0"
     inkscape:current-layer="svg8" />
  <radialGradient
     id="a"
     cx="0"
     cy="0"
     gradientTransform="matrix(42.1315 0 0 42.1318 16.1306 14.4412)"
     gradientUnits="userSpaceOnUse"
     r="1">
    <stop
       offset="0"
       stop-color="#5383ec"
       id="stop1" />
    <stop
       offset=".86699"
       stop-color="#7f52ff"
       id="stop2" />
  </radialGradient>
  <linearGradient
     id="b"
     gradientUnits="userSpaceOnUse"
     x1="37.1719"
     x2="10.9733"
     y1=".376638"
     y2="30.0353">
    <stop
       offset="0"
       stop-color="#33c3ff"
       id="stop3" />
    <stop
       offset=".87843"
       stop-color="#5383ec"
       id="stop4" />
  </linearGradient>
  <path
     d="m49.25 14v28l-24.25 14-24.25-14v-28l24.25-14z"
     fill="#6075f2"
     id="path4" />
  <path
     d="m34.5 22.5v11l-9.5 5.5v17l24.25-14v-28z"
     fill="#6b57ff"
     id="path5" />
  <path
     d="m25 39-9.5-5.5v-11l-14.75-8.5v28l24.25 14z"
     fill="url(#a)"
     id="path6" />
  <path
     d="m15.5 22.5 9.5-5.5 9.5 5.5 14.75-8.5-24.25-14-24.25 14z"
     fill="url(#b)"
     id="path7" />
  <path
     d="m25 17 9.5263 5.5v11l-9.5263 5.5-9.5263-5.5v-11z"
     fill="#000"
     id="path8"
     style="fill:#000000;fill-opacity:1" />
</svg>
