<?xml version="1.0" encoding="UTF-8" standalone="no"?>
<!-- Created with Inkscape (http://www.inkscape.org/) -->

<svg
   width="60.000389"
   height="60.000084"
   version="1.1"
   viewBox="0 0 15.87479 15.87471"
   id="svg27"
   sodipodi:docname="media_player_play.svg"
   inkscape:version="1.4.2 (ebf0e940d0, 2025-05-08)"
   xmlns:inkscape="http://www.inkscape.org/namespaces/inkscape"
   xmlns:sodipodi="http://sodipodi.sourceforge.net/DTD/sodipodi-0.dtd"
   xmlns="http://www.w3.org/2000/svg"
   xmlns:svg="http://www.w3.org/2000/svg"
   xmlns:rdf="http://www.w3.org/1999/02/22-rdf-syntax-ns#"
   xmlns:cc="http://creativecommons.org/ns#"
   xmlns:dc="http://purl.org/dc/elements/1.1/">
  <sodipodi:namedview
     id="namedview1"
     pagecolor="#ffffff"
     bordercolor="#000000"
     borderopacity="0.25"
     inkscape:showpageshadow="2"
     inkscape:pageopacity="0.0"
     inkscape:pagecheckerboard="0"
     inkscape:deskcolor="#d1d1d1"
     inkscape:zoom="19.337268"
     inkscape:cx="27.847781"
     inkscape:cy="18.254905"
     inkscape:window-width="1908"
     inkscape:window-height="1022"
     inkscape:window-x="0"
     inkscape:window-y="0"
     inkscape:window-maximized="1"
     inkscape:current-layer="g27" />
  <defs
     id="defs12">
    <linearGradient
       id="linearGradient1634"
       x1="-54.827999"
       x2="-63.444"
       y1="-1.7294"
       y2="-11.074"
       gradientTransform="matrix(1.0909,0,0,1.0909,61.281,70.76)"
       gradientUnits="userSpaceOnUse">
      <stop
         stop-color="#8f62bc"
         offset="0"
         id="stop5" />
      <stop
         stop-color="#f7904e"
         offset="1"
         id="stop6" />
    </linearGradient>
    <linearGradient
       id="linearGradient987"
       x1="-54.827999"
       x2="-63.444"
       y1="-1.7294"
       y2="-11.074"
       gradientTransform="matrix(3.4523,0,0,3.4523,191.99,263.05)"
       gradientUnits="userSpaceOnUse">
      <stop
         stop-color="#232223"
         offset="0"
         id="stop7" />
      <stop
         stop-color="#49484d"
         offset="1"
         id="stop8" />
    </linearGradient>
    <linearGradient
       id="linearGradient1056"
       x1="8.7996998"
       x2="14.091"
       y1="-42.897999"
       y2="-42.897999"
       gradientTransform="matrix(0.9326643,0,0,0.9326643,-2.2727787,47.963925)"
       gradientUnits="userSpaceOnUse">
      <stop
         stop-color="#ebebeb"
         offset="0"
         id="stop3-3" />
      <stop
         stop-color="#fff"
         offset="1"
         id="stop4-6" />
    </linearGradient>
  </defs>
  <metadata
     id="metadata12">
    <rdf:RDF>
      <cc:Work
         rdf:about="">
        <dc:format>image/svg+xml</dc:format>
        <dc:type
           rdf:resource="http://purl.org/dc/dcmitype/StillImage" />
      </cc:Work>
    </rdf:RDF>
  </metadata>
  <g
     transform="translate(11.08758,-55.67679)"
     id="g26">
    <g
       id="g27">
      <path
         d="m 4.7871,63.614 c 0,0.95153 -0.16749,1.8638 -0.47464,2.7094 -0.2135,0.58768 -0.49438,1.1433 -0.83392,1.6572 -0.14222,0.21608 -0.29514,0.42475 -0.45745,0.62528 -0.51965,0.64178 -1.1372,1.2007 -1.8304,1.6543 -0.2553,0.16717 -0.52064,0.3201 -0.79535,0.45712 -1.0668,0.53388 -2.2711,0.8342 -3.5456,0.8342 -1.2745,0 -2.4788,-0.30032 -3.5456,-0.83422 -0.27474,-0.13705 -0.5404,-0.28996 -0.79569,-0.45712 -0.70206,-0.45972 -1.327,-1.0274 -1.8508,-1.6798 -0.16262,-0.20216 -0.31523,-0.41275 -0.45745,-0.63077 -0.33046,-0.50539 -0.6042,-1.0507 -0.81348,-1.627 -0.3071,-0.84527 -0.4743,-1.7572 -0.4743,-2.7084 0,-4.3837 3.5537,-7.9374 7.9374,-7.9374 2.2005,0 4.1916,0.89547 5.6294,2.3416 0.41435,0.41661 0.78273,0.87928 1.0963,1.3795 0.29645,0.47107 0.54427,0.9758 0.73703,1.5068 0.30718,0.84558 0.47466,1.7579 0.47466,2.7094 z"
         fill="url(#linearGradient1634)"
         stroke-width="0.031006"
         id="path23"
         style="fill:url(#linearGradient1634)"
         sodipodi:nodetypes="ccccccscccccssccccc" />
    </g>
    <path
       transform="scale(0.26458)"
       d="m -11.906,215.32 c -13.873,0 -25.119,11.246 -25.119,25.119 0,3.0101 0.53009,5.8953 1.502,8.5703 0.66229,1.8238 1.5284,3.5491 2.5742,5.1484 0.45008,0.68994 0.93263,1.3563 1.4473,1.9961 1.6578,2.0646 3.6357,3.8616 5.8574,5.3164 0.80791,0.52897 1.6481,1.0136 2.5176,1.4473 3.376,1.6896 7.1873,2.6387 11.221,2.6387 4.0334,0 7.8447,-0.94914 11.221,-2.6387 0.86936,-0.43362 1.7097,-0.91822 2.5176,-1.4473 2.194,-1.4355 4.1465,-3.2034 5.791,-5.2344 0.51367,-0.63461 0.99914,-1.2947 1.4492,-1.9785 1.0745,-1.6264 1.963,-3.3863 2.6387,-5.2461 0.972,-2.6759 1.502,-5.563 1.502,-8.5742 0,-3.0111 -0.52985,-5.8983 -1.502,-8.5742 -0.56324,-1.5515 -1.3081,-3.011 -2.1523,-4.4024 l -2.7833,-3.6406 c 0,0 -1.2461546,-1.38807 -4.248,-3.9315 -4.0846,-2.8742 -9.0593,-4.5684 -14.434,-4.5684 z"
       fill="url(#linearGradient987)"
       stroke-width="0.098122"
       id="path24"
       style="fill:url(#linearGradient987)"
       sodipodi:nodetypes="cscccccscccccscccccc" />
  </g>
  <path
     d="M 10.718623,7.6568766 6.6430148,4.5684285 a 0.4317434,0.3919312 0 0 0 -0.708046,0.3057088 v 6.1612177 a 0.4317434,0.3919312 0 0 0 0.708046,0.305708 L 10.718623,8.2526136 a 0.4317434,0.3919312 0 0 0 0.0518,-0.548705 z"
     fill="url(#linearGradient1056)"
     stroke-width="0.00459561"
     p-id="47316"
     id="path17"
     style="fill:url(#linearGradient1056)" />
</svg>
