<?xml version="1.0" encoding="UTF-8" standalone="no"?>
<svg
   width="16"
   height="16"
   enable-background="new"
   version="1.1"
   id="svg1"
   sodipodi:docname="media_skip_backward_symbolic.svg"
   inkscape:version="1.4.2 (ebf0e940d0, 2025-05-08)"
   xmlns:inkscape="http://www.inkscape.org/namespaces/inkscape"
   xmlns:sodipodi="http://sodipodi.sourceforge.net/DTD/sodipodi-0.dtd"
   xmlns="http://www.w3.org/2000/svg"
   xmlns:svg="http://www.w3.org/2000/svg">
  <sodipodi:namedview
     id="namedview1"
     pagecolor="#ffffff"
     bordercolor="#000000"
     borderopacity="0.25"
     inkscape:showpageshadow="2"
     inkscape:pageopacity="0.0"
     inkscape:pagecheckerboard="0"
     inkscape:deskcolor="#d1d1d1"
     inkscape:zoom="51.5625"
     inkscape:cx="7.8642424"
     inkscape:cy="8.3781818"
     inkscape:window-width="1908"
     inkscape:window-height="1022"
     inkscape:window-x="0"
     inkscape:window-y="0"
     inkscape:window-maximized="1"
     inkscape:current-layer="svg1" />
  <defs
     id="defs1">
    <style
       id="current-color-scheme"
       type="text/css">.ColorScheme-Text {
        color:#dedede;
      }</style>
  </defs>
  <path
     class="ColorScheme-Text"
     d="m 12.826,2.6592 c -0.37981,1e-7 -0.54189,0.12418 -0.65234,0.18555 -0.0072,0.00447 -0.01438,0.00902 -0.02148,0.013672 l -6.9356,4.0957 c -0.075177,0.043562 -0.20874,0.10765 -0.36914,0.30469 -0.16225,0.1993 -0.25781,0.52881 -0.25781,0.73633 0,0.20754 0.087648,0.52075 0.24219,0.7207 0.15287,0.1978 0.29598,0.27643 0.38477,0.32812 l 6.9355,4.0957 c 0.0071,0.0046 0.01426,0.0092 0.02148,0.01367 0.16196,0.09008 0.38778,0.17969 0.65234,0.17969 0.25637,-5e-6 0.58772,-0.09652 0.83203,-0.3418 0.24432,-0.24527 0.3418,-0.587 0.3418,-0.84766 v -8.2871 c 0,-0.26064 -0.08983,-0.5862 -0.32031,-0.83203 -0.23049,-0.24583 -0.57064,-0.36523 -0.85352,-0.36523 z"
     fill="currentColor"
     id="path1"
     sodipodi:nodetypes="cccccsccccccssccc" />
  <rect
     class="ColorScheme-Text"
     x="2"
     y="3"
     width="1"
     height="10"
     rx=".5"
     ry=".5"
     fill="currentColor"
     id="rect1" />
</svg>
