<?xml version="1.0" encoding="UTF-8" standalone="no"?>
<svg
   width="16"
   height="13"
   version="1.1"
   id="svg1"
   xmlns="http://www.w3.org/2000/svg"
   xmlns:svg="http://www.w3.org/2000/svg">
  <defs
     id="defs1">
    <style
       id="current-color-scheme"
       type="text/css">.ColorScheme-Text { color:#363636; } .ColorScheme-Text { color:#363636; }</style>
  </defs>
  <path
     class="ColorScheme-Text"
     d="M 2,0 C 0.892,0 0,0.892 0,2 v 9 c 0,1.108 0.892,2 2,2 h 12 c 1.108,0 2,-0.892 2,-2 V 2 C 16,0.892 15.108,0 14,0 Z m 0,1 h 12 c 0.554,0 1,0.446 1,1 v 9 L 10,6 6.5206,10 4,8 1,11 V 2 C 1,1.446 1.446,1 2,1 Z M 4.5,3 C 3.67157,3 3,3.67157 3,4.5 3,5.32843 3.67157,6 4.5,6 5.32843,6 6,5.32843 6,4.5 6,3.67157 5.32843,3 4.5,3 Z"
     fill="currentColor"
     id="path1" />
</svg>
