<?xml version="1.0" encoding="UTF-8" standalone="no"?>
<svg
   version="1.1"
   viewBox="0 0 22 22"
   id="svg3"
   sodipodi:docname="tag_properties.svg"
   inkscape:version="1.4.2 (ebf0e940d0, 2025-05-08)"
   xmlns:inkscape="http://www.inkscape.org/namespaces/inkscape"
   xmlns:sodipodi="http://sodipodi.sourceforge.net/DTD/sodipodi-0.dtd"
   xmlns="http://www.w3.org/2000/svg"
   xmlns:svg="http://www.w3.org/2000/svg">
  <sodipodi:namedview
     id="namedview3"
     pagecolor="#ffffff"
     bordercolor="#000000"
     borderopacity="0.25"
     inkscape:showpageshadow="2"
     inkscape:pageopacity="0.0"
     inkscape:pagecheckerboard="0"
     inkscape:deskcolor="#d1d1d1"
     inkscape:zoom="62.334769"
     inkscape:cx="8.6308172"
     inkscape:cy="3.7138182"
     inkscape:window-width="1908"
     inkscape:window-height="1022"
     inkscape:window-x="0"
     inkscape:window-y="0"
     inkscape:window-maximized="1"
     inkscape:current-layer="svg3" />
  <defs
     id="defs1">
    <style
       id="current-color-scheme"
       type="text/css">.ColorScheme-Text {
        color:#dedede;
      }</style>
  </defs>
  <g
     class="ColorScheme-Text"
     transform="translate(3,3)"
     fill="currentColor"
     id="g3">
    <path
       d="m 3.7533747,14.504951 c -0.094761,2.276002 1.266427,1.477142 1.266427,0.741584 V 4.6247525 c 0,-5.9229511 -1.1801099,-4.9574153 -1.2391109,-0.5490814 -0.037366,2.791831 0.061818,8.2884119 -0.027316,10.4292799 z"
       id="path1"
       style="stroke-width:1.23294"
       sodipodi:nodetypes="sssss" />
  </g>
  <path
     d="M 6,3 C 4.338,3 3,4.338 3,6 v 10 c 0,1.662 1.338,3 3,3 h 10 c 1.662,0 3,-1.338 3,-3 V 6 C 19,4.338 17.662,3 16,3 Z m 0,3 h 10 c 1.108,0 2,0.892 2,2 v 8 c 0,1.108 -0.892,2 -2,2 H 6 C 4.892,18 4,17.108 4,16 V 8 C 4,6.892 4.892,6 6,6 Z"
     class="ColorScheme-Text"
     fill="currentColor"
     id="path3"
     sodipodi:nodetypes="ssssssssssssssssss" />
</svg>
