<?xml version="1.0" encoding="UTF-8" standalone="no"?>
<svg
   width="14"
   height="13.999994"
   version="1.1"
   viewBox="0 0 14 13.999994"
   id="svg2"
   xmlns="http://www.w3.org/2000/svg"
   xmlns:svg="http://www.w3.org/2000/svg">
  <defs
     id="defs2" />
  <path
     class="ColorScheme-Text"
     d="M 5.5,-1.9853874e-8 C 8.5376,-1.9853874e-8 11,2.4624 11,5.5 11,6.8388 10.5217,8.0659 9.7266,9.0196 l 4.127,4.1268 c 0.1952,0.1953 0.1952,0.5119 0,0.7072 -0.1736,0.1735 -0.443,0.1928 -0.6379,0.0578 L 13.1464,13.8536 9.0196,9.7266 C 8.0659,10.5217 6.8388,11 5.5,11 2.4624,11 0,8.5376 0,5.5 0,2.4624 2.4624,-1.9853874e-8 5.5,-1.9853874e-8 Z M 5.5,0.99999998 C 3.0147,0.99999998 1,3.0147 1,5.5 1,7.9853 3.0147,10 5.5,10 7.9853,10 10,7.9853 10,5.5 10,3.0147 7.9853,0.99999998 5.5,0.99999998 Z"
     color="#dedede"
     fill="currentColor"
     id="path1" />
  <path
     d="M 5,5 H 3.5 C 3.223,5 3,5.223 3,5.5 3,5.777 3.223,6 3.5,6 H 6 7.5 C 7.777,6 8,5.777 8,5.5 8,5.223 7.777,5 7.5,5 Z"
     fill="#dedede"
     style="paint-order:stroke fill markers"
     id="path2" />
</svg>
